<?xml version="1.0" encoding="utf-8"?>
<!-- Generator: Adobe Illustrator 19.1.1, SVG Export Plug-In . SVG Version: 6.00 Build 0)  -->
<svg version="1.1" xmlns="http://www.w3.org/2000/svg" xmlns:xlink="http://www.w3.org/1999/xlink" x="0px" y="0px"
	 viewBox="0 0 960 560" style="enable-background:new 0 0 960 560;" xml:space="preserve">
<style type="text/css">
	.st0{display:none;}
	.st1{display:inline;stroke:#000000;stroke-miterlimit:10;}
	.st2{display:inline;fill:#FF0000;}
	.st3{fill:#FFFFFF;}
</style>
<g id="Layer_1" class="st0">
	<rect x="-123" y="-88" class="st1" width="1103" height="670"/>
	<rect x="-226" y="-155" class="st2" width="1441" height="853"/>
</g>
<g id="Layer_3">
	<path class="st3" d="M-133,562c0.1-0.3,0.2-0.6,0.2-0.9c1.9,0.8,2.6,0.9,4.8-0.1c1.8-0.8,3.6-1.4,5.5-2c3.7-1.2,7.7-2.6,11.5-3.5
		c2-0.5,4.4-1,6.5-1.5c0.9-0.2,2.1-0.8,3-0.8c1.2,0,2.2,0.9,3.5,0.9c3.7,0,8.7-3.3,11.5-5.6c3-2.5,4.8-7.3,9-7.5
		c2.6-0.1,5.1,0,7.5,0.5c3.2,0.7,5.5,0.4,8.7-0.3c2.5-0.6,5.4-0.2,8-0.2c1.3,0,3,0.3,4.3,0.1c1.2-0.2,2.2-0.9,3.4-1.1
		c1.4-0.2,2.6-0.1,4-0.4c1.9-0.5,3.8-1.3,5.8-1.6c1.8-0.2,3.1,0,4.8-0.7c1.2-0.5,2-1.1,3.4-1.3c3-0.4,4.8,1.2,7.5,1.5
		c2,0.2,4.9-0.3,7-0.4c2.2-0.1,3.9-1.1,6.2-1c3,0.1,6.3,1.5,9.1,2.6C4.2,539.4,5,540,7,540c1,0,2-0.2,2.9-0.1
		c2.9,0.3,5.7,1.9,8.6,2.6c2.4,0.6,4.7,0.2,7.1,0.5c2.5,0.2,4.6,1.9,7.2,2.1c2.5,0.2,4.7,0.5,7.2,1.2c3.3,0.9,6.6,0.8,10.1,0.8
		c3,0,5.9,0.5,8.8,1.2c2.7,0.7,4.8,0.8,7.6,0.8c1.9,0,4.8,0.6,6.5,0c3-1.1,3.4-3.8,7.3-4c1.8-0.1,4.7-0.5,6.4,0.2
		c1.3,0.5,1.8,1.8,3.3,2c2.6,0.3,6.5-1.7,9-2.6c1.7-0.6,3.5-1.4,5.2-2.1c2.5-1.1,4.3-3.1,6.8-4.2c1.4-0.6,3-0.8,4.4-1.3
		c1.6-0.6,2.8-1.4,4.3-2.3c2.7-1.5,5.7-2.5,8.5-3.7c1.7-0.7,3.2-1.5,4.9-2.5c3.3-1.8,6.8-1.6,10.5-1.5c1.8,0,3,0,4.5-0.5
		c1.2-0.4,2.6-1,4-1.3c1.5-0.3,2.8,0.3,4,0.2c1-0.1,1.3-0.6,2.2-1.2c2.4-1.5,4.1-3.3,6.2-5.3c1.4-1.3,2.7-2.9,4.3-4
		c2.7-1.8,5.9-2.7,8.6-4.7c1.5,0.8,2,2.5,3.4,3.4c1.1,0.2,2.2,0.6,3.2,1.2c0.5,0.4,0.9,0.9,1.2,1.5c1,0.5,2.3,0.8,3.5,1.5
		c1.5,0.8,2.3,2,4.1,2.6c-0.2-0.2-0.2-0.4,0.1-0.4c1.7,1.9,6.4,4.1,8.8,4.7c2,0.5,3.6,0.9,5.5,1.6c1.6,0.6,3.1,0.5,3.9,1.9
		c0.4,0.7,0,1.4,0.6,2c0.6,0.6,1.2,0.4,1.9,0.7c1.8,0.7,3,1.7,4.6,2.8c2.8,2,5.9,2.7,8.9,4c2.8,1.2,6.8,3.3,10,2.8
		c0-0.5-0.3-0.8-0.7-1c2.2,0.6,4.3,1.5,6.5,2.2c10.4,3.2,22.8,0.6,33-1c10.3-1.5,21-2.2,31.2-4.4c5.7-1.3,8.7-4.7,13.2-8.1
		c2.4-1.9,4.9-3.1,7.9-3.5c1.1-0.1,2.2,0.1,3.2-0.3c2-0.6,2.6-3.4,4.7-3.3c-0.1-2.5,2.6-1.9,4.1-1.7c1.1-0.9,0.8-2.6,1-3.8
		c1-0.1,1.9-0.9,2.8-1c1.5-0.2,2.6,0.7,4,1.2c2.6,1.1,5.4,1.8,8.1,2.6c3.3,1,6.9,1.8,10,3c2.8,1.1,5.2,1.3,7.9,2.7
		c1.9,1,3.2,2,5.4,1.3c2.1-0.6,2.5-2.6,4.9-2.3c1.2,0.7,2.5,1.3,3.9,1.7c1.9,0.7,3.9,1.3,5.9,1.8c3.2,1,7,3,10.3,3.2
		c1.6,0.1,3.3-0.5,5-0.3c2,0.3,3.9,1.6,5.7,2.4c3.6,1.7,7.4,3.3,11.3,4c4.5,0.9,8.2,2.5,12.5,4.3c4.9,2.1,10.3,2.4,15.2,4.4
		c6.5,2.7,13.1,4.9,19.4,7.9c3.5,1.7,6.9,3.6,10.6,4.9c4.1,1.4,8,2.7,12,4.5c3.8,1.7,7.7,4.3,12,4.7c1.7-0.5,3.3-0.6,5-0.3
		c2.4,0.1,4.7,0.6,6.9,1.6c5.5,1.8,10.6,4.3,15.7,6.8c5.9,2.9,12,5.2,18.2,7.4c6.8,2.4,14.3,6.2,21.4,7.9c4.2,1,8.4,1.2,12.6,1.8
		c5.5,0.8,9.6,3.4,14.3,5.5"/>
	<path class="st3" d="M359,568c0.1-0.3,0.2-0.6,0.2-0.9c1.9,0.8,2.6,0.9,4.8-0.1c1.8-0.8,3.6-1.4,5.5-2c3.7-1.2,7.7-2.6,11.5-3.5
		c2-0.5,4.4-1,6.5-1.5c0.9-0.2,2.1-0.8,3-0.8c1.2,0,2.2,0.9,3.5,0.9c3.7,0,8.7-3.3,11.5-5.6c3-2.5,4.8-7.3,9-7.5
		c2.6-0.1,5.1,0,7.5,0.5c3.2,0.7,5.5,0.4,8.7-0.3c2.5-0.6,5.4-0.2,8-0.2c1.3,0,3,0.3,4.3,0.1c1.2-0.2,2.2-0.9,3.4-1.1
		c1.4-0.2,2.6-0.1,4-0.4c1.9-0.5,3.8-1.3,5.8-1.6c1.8-0.2,3.1,0,4.8-0.7c1.2-0.5,2-1.1,3.4-1.3c3-0.4,4.8,1.2,7.5,1.5
		c2,0.2,4.9-0.3,7-0.4c2.2-0.1,3.9-1.1,6.2-1c3,0.1,6.3,1.5,9.1,2.6c1.9,0.8,2.7,1.3,4.7,1.4c1,0,2-0.2,2.9-0.1
		c2.9,0.3,5.7,1.9,8.6,2.6c2.4,0.6,4.7,0.2,7.1,0.5c2.5,0.2,4.6,1.9,7.2,2.1c2.5,0.2,4.7,0.5,7.2,1.2c3.3,0.9,6.6,0.8,10.1,0.8
		c3,0,5.9,0.5,8.8,1.2c2.7,0.7,4.8,0.8,7.6,0.8c1.9,0,4.8,0.6,6.5,0c3-1.1,3.4-3.8,7.3-4c1.8-0.1,4.7-0.5,6.4,0.2
		c1.3,0.5,1.8,1.8,3.3,2c2.6,0.3,6.5-1.7,9-2.6c1.7-0.6,3.5-1.4,5.2-2.1c2.5-1.1,4.3-3.1,6.8-4.2c1.4-0.6,3-0.8,4.4-1.3
		c1.6-0.6,2.8-1.4,4.3-2.3c2.7-1.5,5.7-2.5,8.5-3.7c1.7-0.7,3.2-1.5,4.9-2.5c3.3-1.8,6.8-1.6,10.5-1.5c1.8,0,3,0,4.5-0.5
		c1.2-0.4,2.6-1,4-1.3c1.5-0.3,2.8,0.3,4,0.2c1-0.1,1.3-0.6,2.2-1.2c2.4-1.5,4.1-3.3,6.2-5.3c1.4-1.3,2.7-2.9,4.3-4
		c2.7-1.8,5.9-2.7,8.6-4.7c1.5,0.8,2,2.5,3.4,3.4c1.1,0.2,2.2,0.6,3.2,1.2c0.5,0.4,0.9,0.9,1.2,1.5c1,0.5,2.3,0.8,3.5,1.5
		c1.5,0.8,2.3,2,4.1,2.6c-0.2-0.2-0.2-0.4,0.1-0.4c1.7,1.9,6.4,4.1,8.8,4.7c2,0.5,3.6,0.9,5.5,1.6c1.6,0.6,3.1,0.5,3.9,1.9
		c0.4,0.7,0,1.4,0.6,2c0.6,0.6,1.2,0.4,1.9,0.7c1.8,0.7,3,1.7,4.6,2.8c2.8,2,5.9,2.7,8.9,4c2.8,1.2,6.8,3.3,10,2.8
		c0-0.5-0.3-0.8-0.7-1c2.2,0.6,4.3,1.5,6.5,2.2c10.4,3.2,22.8,0.6,33-1c10.3-1.5,21-2.2,31.2-4.4c5.7-1.3,8.7-4.7,13.2-8.1
		c2.4-1.9,4.9-3.1,7.9-3.5c1.1-0.1,2.2,0.1,3.2-0.3c2-0.6,2.6-3.4,4.7-3.3c-0.1-2.5,2.6-1.9,4.1-1.7c1.1-0.9,0.8-2.6,1-3.8
		c1-0.1,1.9-0.9,2.8-1c1.5-0.2,2.6,0.7,4,1.2c2.6,1.1,5.4,1.8,8.1,2.6c3.3,1,6.9,1.8,10,3c2.8,1.1,5.2,1.3,7.9,2.7
		c1.9,1,3.2,2,5.4,1.3c2.1-0.6,2.5-2.6,4.9-2.3c1.2,0.7,2.5,1.3,3.9,1.7c1.9,0.7,3.9,1.3,5.9,1.8c3.2,1,7,3,10.3,3.2
		c1.6,0.1,3.3-0.5,5-0.3c2,0.3,3.9,1.6,5.7,2.4c3.6,1.7,7.4,3.3,11.3,4c4.5,0.9,8.2,2.5,12.5,4.3c4.9,2.1,10.3,2.4,15.2,4.4
		c6.5,2.7,13.1,4.9,19.4,7.9c3.5,1.7,6.9,3.6,10.6,4.9c4.1,1.4,8,2.7,12,4.5c3.8,1.7,7.7,4.3,12,4.7c1.7-0.5,3.3-0.6,5-0.3
		c2.4,0.1,4.7,0.6,6.9,1.6c5.5,1.8,10.6,4.3,15.7,6.8c5.9,2.9,12,5.2,18.2,7.4c6.8,2.4,14.3,6.2,21.4,7.9c4.2,1,8.4,1.2,12.6,1.8
		c5.5,0.8,9.6,3.4,14.3,5.5"/>
	<path class="st3" d="M864.5,552c0.5-0.2,0.8-0.6,1.3-0.8c-0.2,0.5-0.3,0.9,0,1.3c0.5-0.5,1.6-0.6,2.2-1c0.7-0.4,1.5-0.6,2.2-1
		c1.4-0.8,2.8-2.1,4.4-2.7c0.7-0.3,1.4-0.2,2-0.4c0.9-0.3,1.3-1.2,2.2-1.4c1.7-0.4,3.5-0.3,5.2-0.9c1.8-0.6,3.5-0.6,5.4-1
		c1.5-0.3,2.9-0.5,4.5-0.7c0.7,0,1.4-0.2,2.1-0.3c0.6-0.2,1.2-0.2,1.7,0.1c0.2,0,0.5,0,0.7,0c0.4-0.4,0.8-0.8,1.3-1.1
		c0.9-0.3,2.4-0.3,3.3-0.5c1-0.2,2.1-0.2,3.1-0.1c1.2,0.1,3.6,1.2,4.5,0.3c-0.3-2.7,1.3-2,3.1-2.3c1.3-0.2,2.6-0.6,3.9-0.8
		c1.5-0.3,2.9-0.6,4.3-1.1c2.7-0.9,5.4-2.4,8.2-2.9c1.1-0.2,2.3-0.1,3.4-0.6c1.6-0.7,2.9-2.1,4.3-3c2.9-1.8,6-2.5,9.1-3.8
		c2.4-1,4.5-2.4,7-3.2c1.2-0.4,2.3-0.8,3.5-1.1c1.8-0.6,3.4-0.3,5.2-0.8c1.7-0.4,3.1-1.6,4.9-2c1.5-0.3,2.9,0.2,4.3,0.1
		c2.2-0.1,4.2-0.6,6.3-1.1c3-0.7,5.4-0.4,8.4-0.2c2,0.2,4-0.5,6.1-0.4c2.5,0,4.8,0,7.3-0.5c5.4-1,11.2-2.1,16.7-1.4
		c3.2,0.4,6.7,0.5,9.8,1.3c1.8,0.5,2.9,1.8,4.5,2.8c0.6,0.4,1.4,0.6,1.9,1c1.5,1.1,2.7,3,3.9,4.4c2.3,2.7,4,5.6,5.6,8.8
		c1.7,3.6,2.3,6.9,2.6,10.9c0.3,5,0.8,10.1,1.6,15c0.6,3.2,1.9,6.4,1.9,9.7c-0.1,3.8-1,7.5-1.1,11.3c-0.2,7.7-0.9,15.1-2.2,22.7
		c-1.2,7.5-2.2,15-3.8,22.4c-0.9,3.9-1.7,7.9-2.8,11.7c-1.5,5.4-4.1,10.4-6.4,15.5c-2.7,5.9-5.3,11.6-9.8,16.4
		c-4.7,5-10,9.5-15.8,13.1c-9.8,6.2-20.2,11.4-31.4,14.7c-10.9,3.2-22,5-33.3,6.2c-15,1.6-30.3,2.3-45.4,2.5
		c-19.9,0.3-39.3-1.8-59.1-3.7c-5.6-0.5-11.1-1.2-16.4-3c-5.3-1.8-9.1-4.8-12.9-8.9c-4.7-5.1-6.4-12-7.5-18.6
		c-1.2-7.2,0.4-14.9,2.8-21.7c1.3-3.8,3-7.5,4.6-11.2c2.5-5.7,5.5-10.7,9.1-15.8c2.2-3.2,4.3-6.3,6.8-9.3c2.9-3.6,6.1-6.8,8.5-10.8
		c1.5-2.6,2.9-5.2,4.5-7.7c2.5-3.8,5.3-7.5,7.5-11.5c1.3-2.2,2.5-4.5,3.3-6.9c0.7-2.4,1.3-4.9,2.3-7.2c0.6-1.5,1.5-2.9,2.1-4.4
		c0.4-1.1,0.5-2.9,1.3-3.8"/>
	<path class="st3" d="M674.5,522c0.6,0.2,0.9,0.7,1.5,0.9c0.8,0.3,1.3,0.1,1.6,1c0.5-0.1,1-0.5,1.5-0.5c0.7,0,1.3,0.5,2,0.6
		c1.1,0.1,1.9-0.5,3-0.5c1.1-0.1,2.3,0.2,3.4,0c1.5-0.3,2.5-1,4.2-1c2.9,0,5.8,1,8.7,1c2.9,0,5.5-1,8.4-1c2.4,0,4.6-0.1,7-0.6
		c1.1-0.3,2-0.4,3.2-0.4c1.1,0,2.1-0.1,3-0.5c1.6-0.7,3.4-0.9,5-1.7c0.9-0.4,1.9-0.5,2.8-0.9c1.1-0.6,2.1-1.6,3.3-2.1
		c1-0.4,2-0.6,2.9-0.9c0.9-0.3,1.3-1.3,2-1.9c0.7-0.6,1.2-0.8,2-1.2c1.2-0.7,1-1.4,2.6-1.4c0.5,0,1.2,0.1,1.7,0
		c0.3-0.1,0.6-0.4,0.8-0.4c1-0.2,2-0.1,3-0.1c2.6,0,4.8,1,7.4,1c2.4,0,4.9,0.4,7.2,1c0.8,0.2,1.1,0,1.9,0.1c1.2,0.1,1,0.4,2,0.8
		c0.4,0.1,1,0.2,1.4,0.1c1.3-0.2,1-0.6,2.2-0.1c1.2,0.5,2.1,0.9,3.4,0.9c0.7,0,1.2-0.2,1.9-0.1c0.5,0.1,0.8,0.5,1.3,0.6
		c0.6,0.2,1.5,0,2.1,0.1c1.1,0.2,2.2,0.5,3.2,0.8c1.5,0.4,3,1.2,4.5,1.5c4,0.9,8,1.7,12.1,2.5c2.5,0.5,4.9,1.7,7.5,1.5
		c0.8,0,1.4,0,2.3,0c1.6,0.1,3.2-0.5,4.9-0.4c2,0.1,3.8,0.8,5.8,0.6c0.9-0.1,1.9-0.7,2.8-0.6c0.7,0.1,1.2,0.5,1.9,0.6
		c0.7,0.1,1.5-0.1,2.2,0c0.7,0,1.2,0.3,2,0.4c1.3,0.3,3.6,0.4,4.8,0c-0.2-1.1,2.4,0,3,0.1c1.5,0.4,3.3,0.5,4.7,1.2
		c0.6,0.3,1.2,0.9,1.8,1.3c0.6,0.4,1.3,0.6,2,1c1.6,1,3.3,1.8,4.9,2.8c0.8,0.5,2,1,2.7,1.7c0.6,0.6,1,1.5,1.7,2
		c0.8,0.6,1.4,0.9,2.1,1.7c1,1.2,1.8,2.4,2.8,3.6c1.2,1.4,1.9,3,2.9,4.6c0.7,1.1,1.6,2.1,2.2,3.2c0.5,1.2,1.2,2.5,1.4,3.7
		c0.4,2.5-0.2,5.2-0.2,7.8c0,5.2-2.7,9.9-4.6,14.6c-1.7,4.1-2.9,7.8-6,11c-6.7,6.8-14.5,11.9-23.7,14.7c-5.6,1.7-11.4,2.3-16.9,4.4
		c-3.3,1.3-6.6,2.6-10.1,3.7c-4,1.2-8,2-12.1,2.9c-6.6,1.4-13.2,3-19.9,3.7c-2.6,0.3-5.2,0.3-7.7,0.5c-4.1,0.3-8.2,0.9-12.3,1.3
		c-4.5,0.4-8.9,0.6-13.3,1.5c-3,0.6-5.8,1.6-8.8,2.3c-4.4,1-8.4,0.5-12.8,0.2c-5.2-0.4-10.2-1-15.4-0.9c-4.4,0.1-8.8,0.6-13.2,0.4
		c-4.2-0.2-8.4-0.8-12.6-1c-6.7-0.3-13.2,0.2-19.6-1.8c-3.7-1.1-7.2-2.6-10.7-4.1c-1.3-0.6-2.2-0.9-3.1-2c-1.2-1.4-1.8-3-2.6-4.7
		c-1.2-2.3-1.8-4.6-2.3-7.1c-1-5,0-9.5,1.3-14.3c1.5-5.5,4-10.1,6.2-15.3c1.5-3.6,1.9-7.7,3.6-11.1c2.8-5.7,5.4-11.8,9.3-16.9
		c1.5-2,3.9-2.7,5.6-4.5c1.1-1.1,2.4-2,3.6-3.1c1.1-1,2.3-3,2.5-4.5"/>
	<path class="st3" d="M615.5,543c0.9-0.3,1.5-1.2,2.2-1.8c1-0.7,1.4-1.3,2.2-2.2c0.8-0.9,1.7-2,2.7-2.6c1-0.6,1.8-1.3,2.6-2.1
		c1.3-1.3,2.3-2.8,3.7-4.1c0.9-0.8,1.7-1.9,2.6-2.7c0.1-0.1,0.8-0.4,1-0.5c0.9-0.3,1.2-0.6,1.9-1.1c1.2-0.9,2.7-0.2,4-1
		c0.7-0.4,1.3-0.9,2-1.2c0.7-0.3,1.4-0.3,2-0.8c0.9-0.6,1.7-1.3,2.7-1.7c0.2-0.1,0.5,0.1,0.8,0c0.5-0.1,0.9-0.5,1.3-0.8
		c0.5-0.3,0.3-0.5,1-0.5c0.9,0,1.6,0.9,2.5,1c1.1,0.1,2.6-0.9,3.6-1.4c0.8-0.4,1.7-0.9,2.6-1.1c0.8-0.2,1.4,0,2.2-0.5
		c0.5-0.3,1-0.7,1.5-1c0.8-0.4,1.4-1,2.3-1c1.2-0.1,2.4,0.7,3.5,1c0.2,0,0.9,0.3,1.1,0.3c0.5,0,0.9-0.5,1.4-0.3
		c0.6,0.2,0.8,0.9,1.2,1.3c0.7,0.7,1.5,1,2.1,1.8c0.7,0.8,1.1,1.6,1.8,2.3c1,0.9,1.6,2,2.5,3c1.8,2,3.6,3.3,5.8,5
		c1.8,1.3,2.5,3.3,4.4,4.6c1.2,0.8,2.3,1.9,3.2,2.9c0.8,0.9,1.1,2.1,1.7,3.1c0.6,1,1.5,1.9,1.8,3.1c0.4,1.5,0.1,3,0.7,4.5
		c0.6,1.7,0.5,3.2,0.5,5c0,2.6-0.2,5.1-1.4,7.6c-1.1,2.3-3.1,3.9-4.4,6.1c-2,3.4-4.3,6.4-6.7,9.5c-4.1,5.4-8.9,11.1-14.8,14.6
		c-2.3,1.3-4.7,2.4-7,3.6c-4,2-8.4,2.8-12.3,5.1c-3.7,2.2-7.3,4.1-11.3,5.6c-3.2,1.2-6.4,2.2-9.6,3.2c-3,0.9-6.9,2.3-9.8,0.5
		c-1.5-0.9-2.2-2.9-3-4.4c-0.9-1.8-1.3-3.7-1.6-5.6c-0.3-2.2-0.6-4.3-1-6.5c-0.7-3.5-0.3-6.1,0.3-9.5c0.5-3.2,0.7-6.5,1-9.7
		c0.4-3.3,0.1-6.6,0.3-9.8c0.2-3.2,1.5-6,2-9.1c0.2-1.1,0.4-2.3,0.7-3.4c0.2-0.7,0.7-1.3,0.8-2c0-0.2-0.1-0.5,0-0.8
		c0.1-0.4,0.4-0.9,0.4-1.3c0-0.8-0.9-1.4,0.1-2"/>
	<path class="st3" d="M573.5,552c1.1,0,2.4,0.2,3.5,0c1.2-0.2,2.3-0.8,3.5-1.1c1.1-0.3,2-0.7,3-1.1c1.2-0.5,2.5-0.2,3.9-0.3
		c1-0.1,1.8-0.5,2.7-0.6c0.7-0.1,1.5,0.1,2.2,0.1c1.7-0.2,3.3-1.3,5-1.5c1.6-0.2,3.2,0.1,4.9-0.3c1.3-0.3,2.5-0.4,3.8-0.2
		c1.5,0.3,2.7,0.9,4.1,0.9c1.2,0,2.5-0.2,3.6,0c1,0.2,1.7,0.5,2.8,0.5c1.5,0,3,0,4.5,0c4.1,0,8.1-0.1,12.2-0.6
		c2.4-0.3,4.6-1.2,7-1.4c3-0.3,5.9,0.2,8.9,0.4c1.8,0.1,3.5-0.3,5.3-0.4c1.5-0.1,2.1-0.2,3.3-1c0.7-0.5,0.9-0.9,1.9-1
		c0.6-0.1,1.5,0.1,2.2,0c1.9,0,2.2,0.5,3.2,2c1.4,2.1,2.1,4.2,3,6.5c2.6,6.8,4.3,14.3,2.3,21.5c-0.6,2.2-1.6,4.3-2.3,6.5
		c-0.8,2.6-1.3,5.3-1.7,8c-1,6.8-3.2,12.6-6.7,18.5c-2.3,3.8-4.1,7.9-6.5,11.6c-2,3.2-4.6,5.8-7.2,8.5c-3.7,4-8,7.5-12.3,10.9
		c-3.3,2.7-6.6,5.4-10.2,7.9c-2.7,1.9-5.4,3.9-8.4,5c-3,1.1-6.2,1.2-9.3,1.8c-3.4,0.7-6.5,1.8-10,2.1c-3.5,0-7.1,0.1-10.6,0.2
		c-2.2,0.3-4.4,0.2-6.6-0.3c-2.8-0.5-5.4-1.2-8.2-1.5c-2.1-0.3-3.2-0.3-4.7-1.7c-1.2-1.1-2.4-3.1-2.8-4.7c-0.3-1.4-0.1-2.9-0.5-4.3
		c-1.3-5.6-2.2-11-2.7-16.7c-0.3-2.9-0.9-5.7-1.3-8.5c-0.5-4.5,0.1-8.9,0.1-13.4c0-5.9-0.5-11.6-0.5-17.5c0-3-0.7-5.9-0.3-8.9
		c0.4-3,0.9-5.4,0.8-8.5c0-2.3,0-4.6,0-6.9c0-0.7-0.2-1.6,0-2.3c0.2-0.9,0.4-0.6,1.1-1.1c0.7-0.4,1.2-0.9,1.9-1.3
		c2.8-1.6,6.4-1.7,9.4-2.7c1.2-0.4,0.9-0.8,1.1-1.9c0.2-1.1,1.5-1.9,1.5-3"/>
	<path class="st3" d="M194,529.5c0.9-0.3,0.6,0.2,1.1,0.5c0.8,0.4,0.8,0.5,1.8,0.5c1.1,0,1.9,0.1,3,0.4c1.2,0.3,2.4,0.6,3.6,0.6
		c1.6,0,2.9,0.4,4.4,0.5c1.1,0,2.2-0.1,3.2,0.1c1,0.2,0.9,0.2,1.9,0c0.4-0.1,0.7-0.1,1.1-0.1c1.8-0.1,3.8,0.7,5.5,0.4
		c1.2-0.2,2.1-0.7,3.4-0.3c0.8,0.2,1.7,0.3,2.5,0.5c0.9,0.3,1.7,1,2.5,1.4c0.9,0.4,1.7,0.5,2.6,0.5c0.6,0,1.3-0.1,1.9,0
		c0.5,0.1,0.9,0.5,1.5,0.6c0.5,0.1,1-0.1,1.5,0.1c0.5,0.2,1.1,0.8,1.6,1c0.9,0.4,1.9,0.6,2.9,1c0.9,0.3,1.6,0.7,2.5,1
		c0.5,0.2,1,0.4,1.5,0.5c0.8,0.2,1.2,0.1,2,0.2c2.4,0.1,4.4,1,6.6,1.8c1.5,0.5,3.3,0.7,4.9,1.1c1.6,0.4,2.6,1.1,4,1.8
		c1.4,0.7,2.6,1.6,4,2.4c1.6,0.9,3.4,1.3,4.8,2.5c1.5,1.2,3.2,1.4,4.7,2.5c1.5,1.1,3.4,1.4,4.8,2.9c1,1,1.9,1.6,3.1,2.2
		c0.5,0.3,1.2,0.6,1.6,1c0.7,0.5,0.6,0.8,1.1,1.5c0.4,0.6,0.5,0.6,1,1.1c1,1,1.2,1.5,1.5,2.9c0.3,1.4,0.8,2.6,0.9,4
		c0.1,1.3,0,2.8,0,4.1c-0.1,2.9-0.5,7-2.3,9.3c-0.8,1-1.8,1.8-2.7,2.7c-2.1,1.8-4.3,3.8-6.5,5.6c-5.8,4.7-14,5.9-21.1,7.2
		c-6.3,1.1-12.5,2.9-18.8,3.7c-4.4,0.4-8.9,0.6-13.3,0.7c-4.2,0.2-8.4,0.3-12.7,0.5c-3.8,0-7.6-0.3-11.5-0.3
		c-5-0.1-9.8,1.3-14.8-0.1c-4.2-1.2-6.9-2.8-8.9-6.8c-1-2-1.6-4.2-2.3-6.4c-0.8-2.7-1.6-5.2-1.7-8c-0.1-3.1,0.6-6.1,1.1-9.2
		c0.5-2.8,0.9-5.2,2.2-7.8c2.2-4.4,4.1-9.2,5.8-13.8c1-2.6,2.7-4.7,3.4-7.5c0.4-1.4,0.6-2.6,0.6-4.1c0-0.5-0.2-1.4,0-1.9
		c0.2-0.7,0.7-1.4,1-2.1"/>
</g>
<g id="Layer_3_copy">
	<path class="st3" d="M-133,562c0.1-0.3,0.2-0.6,0.2-0.9c1.9,0.8,2.6,0.9,4.8-0.1c1.8-0.8,3.6-1.4,5.5-2c3.7-1.2,7.7-2.6,11.5-3.5
		c2-0.5,4.4-1,6.5-1.5c0.9-0.2,2.1-0.8,3-0.8c1.2,0,2.2,0.9,3.5,0.9c3.7,0,8.7-3.3,11.5-5.6c3-2.5,4.8-7.3,9-7.5
		c2.6-0.1,5.1,0,7.5,0.5c3.2,0.7,5.5,0.4,8.7-0.3c2.5-0.6,5.4-0.2,8-0.2c1.3,0,3,0.3,4.3,0.1c1.2-0.2,2.2-0.9,3.4-1.1
		c1.4-0.2,2.6-0.1,4-0.4c1.9-0.5,3.8-1.3,5.8-1.6c1.8-0.2,3.1,0,4.8-0.7c1.2-0.5,2-1.1,3.4-1.3c3-0.4,4.8,1.2,7.5,1.5
		c2,0.2,4.9-0.3,7-0.4c2.2-0.1,3.9-1.1,6.2-1c3,0.1,6.3,1.5,9.1,2.6C4.2,539.4,5,540,7,540c1,0,2-0.2,2.9-0.1
		c2.9,0.3,5.7,1.9,8.6,2.6c2.4,0.6,4.7,0.2,7.1,0.5c2.5,0.2,4.6,1.9,7.2,2.1c2.5,0.2,4.7,0.5,7.2,1.2c3.3,0.9,6.6,0.8,10.1,0.8
		c3,0,5.9,0.5,8.8,1.2c2.7,0.7,4.8,0.8,7.6,0.8c1.9,0,4.8,0.6,6.5,0c3-1.1,3.4-3.8,7.3-4c1.8-0.1,4.7-0.5,6.4,0.2
		c1.3,0.5,1.8,1.8,3.3,2c2.6,0.3,6.5-1.7,9-2.6c1.7-0.6,3.5-1.4,5.2-2.1c2.5-1.1,4.3-3.1,6.8-4.2c1.4-0.6,3-0.8,4.4-1.3
		c1.6-0.6,2.8-1.4,4.3-2.3c2.7-1.5,5.7-2.5,8.5-3.7c1.7-0.7,3.2-1.5,4.9-2.5c3.3-1.8,6.8-1.6,10.5-1.5c1.8,0,3,0,4.5-0.5
		c1.2-0.4,2.6-1,4-1.3c1.5-0.3,2.8,0.3,4,0.2c1-0.1,1.3-0.6,2.2-1.2c2.4-1.5,4.1-3.3,6.2-5.3c1.4-1.3,2.7-2.9,4.3-4
		c2.7-1.8,5.9-2.7,8.6-4.7c1.5,0.8,2,2.5,3.4,3.4c1.1,0.2,2.2,0.6,3.2,1.2c0.5,0.4,0.9,0.9,1.2,1.5c1,0.5,2.3,0.8,3.5,1.5
		c1.5,0.8,2.3,2,4.1,2.6c-0.2-0.2-0.2-0.4,0.1-0.4c1.7,1.9,6.4,4.1,8.8,4.7c2,0.5,3.6,0.9,5.5,1.6c1.6,0.6,3.1,0.5,3.9,1.9
		c0.4,0.7,0,1.4,0.6,2c0.6,0.6,1.2,0.4,1.9,0.7c1.8,0.7,3,1.7,4.6,2.8c2.8,2,5.9,2.7,8.9,4c2.8,1.2,6.8,3.3,10,2.8
		c0-0.5-0.3-0.8-0.7-1c2.2,0.6,4.3,1.5,6.5,2.2c10.4,3.2,22.8,0.6,33-1c10.3-1.5,21-2.2,31.2-4.4c5.7-1.3,8.7-4.7,13.2-8.1
		c2.4-1.9,4.9-3.1,7.9-3.5c1.1-0.1,2.2,0.1,3.2-0.3c2-0.6,2.6-3.4,4.7-3.3c-0.1-2.5,2.6-1.9,4.1-1.7c1.1-0.9,0.8-2.6,1-3.8
		c1-0.1,1.9-0.9,2.8-1c1.5-0.2,2.6,0.7,4,1.2c2.6,1.1,5.4,1.8,8.1,2.6c3.3,1,6.9,1.8,10,3c2.8,1.1,5.2,1.3,7.9,2.7
		c1.9,1,3.2,2,5.4,1.3c2.1-0.6,2.5-2.6,4.9-2.3c1.2,0.7,2.5,1.3,3.9,1.7c1.9,0.7,3.9,1.3,5.9,1.8c3.2,1,7,3,10.3,3.2
		c1.6,0.1,3.3-0.5,5-0.3c2,0.3,3.9,1.6,5.7,2.4c3.6,1.7,7.4,3.3,11.3,4c4.5,0.9,8.2,2.5,12.5,4.3c4.9,2.1,10.3,2.4,15.2,4.4
		c6.5,2.7,13.1,4.9,19.4,7.9c3.5,1.7,6.9,3.6,10.6,4.9c4.1,1.4,8,2.7,12,4.5c3.8,1.7,7.7,4.3,12,4.7c1.7-0.5,3.3-0.6,5-0.3
		c2.4,0.1,4.7,0.6,6.9,1.6c5.5,1.8,10.6,4.3,15.7,6.8c5.9,2.9,12,5.2,18.2,7.4c6.8,2.4,14.3,6.2,21.4,7.9c4.2,1,8.4,1.2,12.6,1.8
		c5.5,0.8,9.6,3.4,14.3,5.5"/>
	<path class="st3" d="M359,568c0.1-0.3,0.2-0.6,0.2-0.9c1.9,0.8,2.6,0.9,4.8-0.1c1.8-0.8,3.6-1.4,5.5-2c3.7-1.2,7.7-2.6,11.5-3.5
		c2-0.5,4.4-1,6.5-1.5c0.9-0.2,2.1-0.8,3-0.8c1.2,0,2.2,0.9,3.5,0.9c3.7,0,8.7-3.3,11.5-5.6c3-2.5,4.8-7.3,9-7.5
		c2.6-0.1,5.1,0,7.5,0.5c3.2,0.7,5.5,0.4,8.7-0.3c2.5-0.6,5.4-0.2,8-0.2c1.3,0,3,0.3,4.3,0.1c1.2-0.2,2.2-0.9,3.4-1.1
		c1.4-0.2,2.6-0.1,4-0.4c1.9-0.5,3.8-1.3,5.8-1.6c1.8-0.2,3.1,0,4.8-0.7c1.2-0.5,2-1.1,3.4-1.3c3-0.4,4.8,1.2,7.5,1.5
		c2,0.2,4.9-0.3,7-0.4c2.2-0.1,3.9-1.1,6.2-1c3,0.1,6.3,1.5,9.1,2.6c1.9,0.8,2.7,1.3,4.7,1.4c1,0,2-0.2,2.9-0.1
		c2.9,0.3,5.7,1.9,8.6,2.6c2.4,0.6,4.7,0.2,7.1,0.5c2.5,0.2,4.6,1.9,7.2,2.1c2.5,0.2,4.7,0.5,7.2,1.2c3.3,0.9,6.6,0.8,10.1,0.8
		c3,0,5.9,0.5,8.8,1.2c2.7,0.7,4.8,0.8,7.6,0.8c1.9,0,4.8,0.6,6.5,0c3-1.1,3.4-3.8,7.3-4c1.8-0.1,4.7-0.5,6.4,0.2
		c1.3,0.5,1.8,1.8,3.3,2c2.6,0.3,6.5-1.7,9-2.6c1.7-0.6,3.5-1.4,5.2-2.1c2.5-1.1,4.3-3.1,6.8-4.2c1.4-0.6,3-0.8,4.4-1.3
		c1.6-0.6,2.8-1.4,4.3-2.3c2.7-1.5,5.7-2.5,8.5-3.7c1.7-0.7,3.2-1.5,4.9-2.5c3.3-1.8,6.8-1.6,10.5-1.5c1.8,0,3,0,4.5-0.5
		c1.2-0.4,2.6-1,4-1.3c1.5-0.3,2.8,0.3,4,0.2c1-0.1,1.3-0.6,2.2-1.2c2.4-1.5,4.1-3.3,6.2-5.3c1.4-1.3,2.7-2.9,4.3-4
		c2.7-1.8,5.9-2.7,8.6-4.7c1.5,0.8,2,2.5,3.4,3.4c1.1,0.2,2.2,0.6,3.2,1.2c0.5,0.4,0.9,0.9,1.2,1.5c1,0.5,2.3,0.8,3.5,1.5
		c1.5,0.8,2.3,2,4.1,2.6c-0.2-0.2-0.2-0.4,0.1-0.4c1.7,1.9,6.4,4.1,8.8,4.7c2,0.5,3.6,0.9,5.5,1.6c1.6,0.6,3.1,0.5,3.9,1.9
		c0.4,0.7,0,1.4,0.6,2c0.6,0.6,1.2,0.4,1.9,0.7c1.8,0.7,3,1.7,4.6,2.8c2.8,2,5.9,2.7,8.9,4c2.8,1.2,6.8,3.3,10,2.8
		c0-0.5-0.3-0.8-0.7-1c2.2,0.6,4.3,1.5,6.5,2.2c10.4,3.2,22.8,0.6,33-1c10.3-1.5,21-2.2,31.2-4.4c5.7-1.3,8.7-4.7,13.2-8.1
		c2.4-1.9,4.9-3.1,7.9-3.5c1.1-0.1,2.2,0.1,3.2-0.3c2-0.6,2.6-3.4,4.7-3.3c-0.1-2.5,2.6-1.9,4.1-1.7c1.1-0.9,0.8-2.6,1-3.8
		c1-0.1,1.9-0.9,2.8-1c1.5-0.2,2.6,0.7,4,1.2c2.6,1.1,5.4,1.8,8.1,2.6c3.3,1,6.9,1.8,10,3c2.8,1.1,5.2,1.3,7.9,2.7
		c1.9,1,3.2,2,5.4,1.3c2.1-0.6,2.5-2.6,4.9-2.3c1.2,0.7,2.5,1.3,3.9,1.7c1.9,0.7,3.9,1.3,5.9,1.8c3.2,1,7,3,10.3,3.2
		c1.6,0.1,3.3-0.5,5-0.3c2,0.3,3.9,1.6,5.7,2.4c3.6,1.7,7.4,3.3,11.3,4c4.5,0.9,8.2,2.5,12.5,4.3c4.9,2.1,10.3,2.4,15.2,4.4
		c6.5,2.7,13.1,4.9,19.4,7.9c3.5,1.7,6.9,3.6,10.6,4.9c4.1,1.4,8,2.7,12,4.5c3.8,1.7,7.7,4.3,12,4.7c1.7-0.5,3.3-0.6,5-0.3
		c2.4,0.1,4.7,0.6,6.9,1.6c5.5,1.8,10.6,4.3,15.7,6.8c5.9,2.9,12,5.2,18.2,7.4c6.8,2.4,14.3,6.2,21.4,7.9c4.2,1,8.4,1.2,12.6,1.8
		c5.5,0.8,9.6,3.4,14.3,5.5"/>
</g>
</svg>
