<?xml version="1.0" encoding="utf-8"?>
<!-- Generator: Adobe Illustrator 19.1.1, SVG Export Plug-In . SVG Version: 6.00 Build 0)  -->
<svg version="1.1" xmlns="http://www.w3.org/2000/svg" xmlns:xlink="http://www.w3.org/1999/xlink" x="0px" y="0px"
	 viewBox="0 0 705.1 560" style="enable-background:new 0 0 705.1 560;" xml:space="preserve">
<style type="text/css">
	.st0{display:none;}
	.st1{display:inline;stroke:#000000;stroke-miterlimit:10;}
	.st2{display:inline;fill:#FF0000;}
	.st3{fill:#FFFFFF;}
	.st4{display:inline;fill:none;stroke:#FFFFFF;stroke-width:3;stroke-miterlimit:10;}
</style>
<g id="Layer_1" class="st0">
	<rect x="-123" y="-88" class="st1" width="1103" height="670"/>
	<rect x="-226" y="-155" class="st2" width="1441" height="853"/>
</g>
<g id="Layer_3">
	<path class="st3" d="M4.6,382.8c4.6,0.1,7.4-0.6,11.7-1.1c3.4-0.4,6.9-0.6,10.1-1.2c5.9-1.1,10.7-1.5,17.2-1.5
		c7.5,0,14,0.2,21.1-0.8c5.7-0.8,11.6-1.4,17.2-2.4c3-0.6,5.2-0.5,8.2-0.8c3.8-0.4,5.1-0.5,9,0c2.4,0.3,9.9,0.4,11.1,1.4
		c1.3,1-1.4,2.9-0.5,4.2c0.8,1.1,3.9,1.7,5.2,2.4c1.1,0.6,0.8,1.4,1.8,2c0.5,0.3,1.7,0.6,2.3,0.9c1.7,0.9,3.2,2.2,4.5,3.2
		c1.1,0.8,0.7,2.5,3.5,2.7c-2.5,0.9,4.1,3.3,5,4.2c0.7,0.8,0.8,1.6,1.6,2.5c1.3,1.3,1.5,2.2,1.5,3.6c0,2-0.1,3.5,1.7,5.4
		c2.1,2.1,2,4.5,3.9,6.7c2,2.2,5.6,4.3,8,6.4c2,1.9,3.3,4,5.2,5.9c2,2.1,5.5,4,7.9,6c2.2,1.8,5.8,3.4,6.6,5.5
		c2.4,0.2,4.3,0.6,6.5,0.8c2.3,0.2,4.9-0.2,7.2-0.1c2.1,0.2,3.5,0.6,5.5,0.7c3,0.1,6.2-0.3,9.1,0c2.6,0.2,4.8,0.7,7.4,1
		c3.1,0.3,5.7,0.3,9,0.3c2.7,0,6.8,0,9.2,0.6c2.6,0.7,2.4,1.7,3.2,2.9c1.3,2,3.3,4,4.5,6c1.4,2.3,3.5,4.8,6.8,6.6
		c1.4,0.8,2.6,1.7,4.2,2.4c2.3,1,4.5,1.5,6.6,2.6c1.9,1,4,1.5,6.4,2.1c3.2,0.8,3.5,1.7,5.6,2.9c3.1,1.8,8.3,2.6,12.4,4.1
		c1.2,0.4,3,0.8,3.9,1.4c0.8,0.5,0.8,1.5,1.6,2.1c1.1,0.9,2.9,1.6,4.4,2.4c2.6,1.4,3,2.1,3.3,3.9c0.4,2.4,3.8,3.7,5.9,5.8
		c3.1,3.2,3.2,7.1,3.1,10.6c0,2.7-0.1,5.3-0.9,7.9c-0.6,1.9-1.2,3.6-3.6,5.3c-4.3,1.9-9.4,3.3-15.2,4.1c-3.9,1-7.8,2.1-11.7,3.1
		c-7.4,2.1-13.9,4.8-21.2,7c-7.5,2.2-15.7,4.1-23.7,5.9c-11,2.5-22.3,5.7-34.3,7.3c-11.2,1.5-22.1,1.9-33.7,2.6
		C110.7,542.8,75,551,36.1,553.8c-25.6,1.9-51.2,2.2-76.5,5c-7.9,0.9-15.9,1.3-24,1.9c-6.2,0.5-12.3,1.4-18.5,1.9
		c-32.9,2.6-69.4-1.2-95-10.4c-19.8-7.1-25.3-18.4-28.9-28.8c-2.4-6.8-3-13.7-1.5-20.6c1.4-6.4,1.9-13,4.8-19.4
		c3.5-7.8,14.1-15,21.7-22.1c9.3-8.7,17.7-17.5,26.8-26.3c12.9-12.4,25.4-25.1,43.8-36.2c5.6-3.3,11.4-7.2,19.5-9.6
		c6.7-1.9,13.8-3.6,20.4-5.7c4-1.2,8.1-2.5,12.3-3.6c2.7-0.7,5.4-1.4,8.1-2.1c1.2-0.1,2.4-0.3,3.6-0.5c1-0.3,1.1-0.9,1.9-1.4
		c1.4-0.9,3.6-1.2,5.7-1.6c4.6-1,9.4-3.5,14.3-3.9"/>
	<path class="st3" d="M245.6,634.2c2.9,0.2,5,1.9,7.5,2.8c1.5,0.5,3.1,0.9,4.6,1.5c2,0.8,1.9,1.4,3.3,2.4c1.6,1.1,3.8,1.1,5.6,1.5
		c3,0.7,5.9,1.2,9,2.3c5.4,1.9,10.2,4.1,15.3,6.1c5.3,2.1,9.8,6.3,14.3,9.2c1.4,0.9,2,2.4,3.2,3.4c0.6,0.5,2.6,1.4,2.9,1.8
		c0.7,0.9,0,1.7,0.6,2.6c0.2,0.4,1.9,2,2.3,2.3c1.3,1.2,3.2,2.1,4.6,3.4c1.3,1.2,3,3.4,4.8,4.8c1.8,1.5,3.5,2.8,5.6,4.1
		c1,0.6,2.5,1.2,3.4,1.8c1.5,0.9,0.8,1.1,1.8,2.1c2,2.1,3.9,4.1,5.3,6.5c1.2,2,3.6,4,4.5,6.1c0.6,1.4,0.2,2.7,0.3,4.2
		c0.1,1.6,0.8,2.7,1.2,4.1c0.5,2,1.5,3.9,1.9,5.9c0.9,3.8,0.8,10-1.2,13.6c-1.4,2.6-2.3,5.3-5.2,7.3c-3.1,2.2-8.2,4.7-12,6.2
		c-9,3.4-18.3,6.4-28,8.9c-7.5,2-14.6,4.5-22,6.6c-7.8,2.2-14.8,3.1-22.9,4.3c-5.4,0.8-9.2,2.6-14.2,3.9c-4.7,1.2-9.7,1.8-14.7,2
		c-7.6,0.4-16.3,1.5-23.8,0c-8.3-1.6-15.7-2.3-24.4-2.2c-10.1,0.2-21,2.5-30.9,1.6c-3-0.3-5.3-0.7-8.4-0.3c-3.3,0.4-2.7,1.5-5.5-0.4
		c-0.3-0.6-0.7-1.1-1-1.7c-0.4-1.1-1.4-1.8-3-2c-2.1-1.3-3.3-1.8-4.9-3.6c-2.6-2.7-5-6.1-5.4-9.4c-0.5-3.5,1-7.4,0.9-11
		c-0.1-3.9-0.4-7.7,1-11.5c0.6-1.7,1.5-3.3,2.3-5c1.3-2.6,2.4-5.1,3.5-7.7c1.4-1.7,2.5-3.6,3.4-5.5c1.4-3.7,1.4-6.9,4.4-10.3
		c2.5-2.9,5.4-5.8,8.2-8.6c5-5.1,12.3-8.3,19.3-11.8c3.3-1.7,6.1-3.7,9.2-5.5c4.3-2.4,9.5-4.1,14.1-6.1c4-1.8,4.9-4.8,8.1-7.2
		c2.9-2.2,4.5-4.7,6.9-7.1c1-1,2.6-1.9,3.7-3c1.9-1.8,4-2.7,6.1-4.4c2.7-2.1,4.2-3.5,8.9-3.1"/>
	<path class="st3" d="M277.6,484.2c5.1,0,11.1-0.4,15.7,1.6c1.5,0.7,2.3,1.9,3.7,2.6c1.5,0.7,2.6,0.6,4.2,0.9
		c2.6,0.6,4.4,1.8,7.2,2.1c7.3,0.7,24.5,1.8,27.7,7.7c1.1,0.1,3.4,2.5,5.2,3.1c3,0.9,4.8,1.9,7.8,2.5c3.7,0.8,5.4,1.9,9.4,2.1
		c4.4,0.2,6.4,1.5,10.5,2.1c6.1,0.9,11.7,3.9,18.1,4.9c3.3,0.5,6.9-0.4,10.2,0.2c2.7,0.4,5.6,1.7,8.4,2.6c5.8,1.8,7.8,5.7,11.3,9
		c3.6,3.4,6.8,6.4,10.2,10.1c0.7,0.7,1.6,1.1,2.3,1.9c0.5,0.6,0.7,2.2,1.4,2.8c0.8,0.6,3.1,0.9,4.2,1.4c1.6,0.7,2.9,1.9,4.5,2.7
		c3.5,1.6,7.9,2.1,10.6,4.6c2.1,1.9,3.4,4.7,4.4,6.9c2.7,6.3,5.5,12.7,9,18.9c1.7,2.9,1,5.5,1.8,8.4c1.1,4.1,2.3,8.7,0.9,13
		c-3.3,10.1-15.4,15.2-27.4,20.5c-8.5,3.7-16.4,8.6-25.5,11.8c-4.9,1.7-8.2,1.1-13.3,1c-7.2-0.2-13.2,0.6-20.1,1.9
		c-21,4-42.4,6.6-63.4,10.4c-11.7,2.1-22.5,2-34.5,2c-9.6-0.1-18.9,0.4-28.4,1c-18.2,1.3-35.7,1.6-54,1.2
		c-10.7-0.2-21.2-0.7-31.8-1.2c-12.7-0.6-25.3-0.3-38-1c-9.8-0.5-19.4-1.1-29.2-1.2c-17.7-0.1-35.4,1.1-53.1,1.2
		c-16,0.1-32,0.3-47.9-0.2c-13.4-0.4-26.7-1.7-40.1-2.2c-36.2-1.5-72.5-0.1-108.7-0.7c-16.4-0.3-32.7-0.7-49-1.4
		c-15.6-0.6-30.1-0.3-45.7,0.1c-13.8,0.3-26.9-1-40.6-1.7c-4-0.2-4.5,0.4-4.9-2c-0.5-3,1.6-7.1,1.7-10.2c0.1-5.2,1.4-9.8,2-14.9
		c0.8-6.2-0.6-12.6-1-18.7c-0.4-5.7,0.4-11.3,0.2-17.1c-0.4-12.2-3.5-23.4,3.2-35c3.4-5.9,5.5-12,8.3-18c3.4-7.1,6.5-13.8,8.4-21.2
		c1.8-7.1,4.8-14.2,5.8-21.5c0.8-6.3-0.6-12.6,0.3-18.9c0.3-2.4,1.2-4.7,1.5-7.1c0.2-1.7-1-4.3,0.2-5.9c0.4-0.1,0.8-0.1,1.2-0.2"/>
	<path class="st3" d="M225.1,483.1c7.8,0.1,14.9,1.6,22.8,1.1c3.1-0.2,5.6-1.4,8.7-1.7c2.9-0.2,6-0.4,8.9-0.5
		c6.6-0.3,12.3,0.1,18.8-1c7.1-1.2,13.1-3.4,20.2-4.3c6.4-0.8,12.3-2.7,18.4-4.1c4.7-1.2,6.2,0.5,10.2,1c3.7,0.5,4.9-0.9,7.8-2
		c3.8-1.4,8-2,11.9-3.3c3.8-1.3,6.6-3.6,10.4-4.7c4.5-1.2,9.5-2.1,14.1-3.3c5-1.3,9.5-0.9,14.7-1.1c2.6-0.1,4.7-0.6,7.1-1.1
		c0.1,0,3.3-0.8,3.2-0.8c4.6-0.1,7.5,3.3,10.5,5.2c3.7,2.4,8.2,3.3,11.8,5.9c2.9,2.1,4.6,3.9,9,4.9c2.9,0.7,8,0.4,8.9,2.9
		c1.4-1.4,3.9-0.4,4.5,1c2.5,1.7,6.6,2.4,10.1,3.6c4.4,1.5,10.1,3.1,15,3.9c6.1,1,10.2-0.4,15.5,2.5c2.8,1.6,6.4,3.4,9,5.1
		c1.8,1.2,2.6,2.7,4.4,3.9c1.4,0.9,2.9,1.6,4.2,2.6c2.3,1.6,5.1,3,7.4,4.8c5.4,4.2,9.9,8.5,16.7,11.8c-0.2-0.5-0.3-1-0.4-1.5
		c2.6-0.7,7.1,0.9,9.6,1.6c1.5,0.5,3,1.1,4.5,1.6c1.8,0.5,3.7,0.3,5.3,0.8c3.2,0.9,3.5,4.2,6.1,5.6c1.4,0.8,3.5,0.7,5.2,1.3
		c1.2,0.5,2.5,1.3,3.6,1.9c6,3.2,10.8,6.4,17.3,8.7c2.9,1,5.3,1.8,7.8,3.1c3.7,1.9,8.6,2.8,12.5,4.5c3.4,1.4,7.1,2.1,10.7,3.3
		c1.9,0.7,4,1.3,5.8,2.1c2.6,1.1,4.2,1.1,7.2,1.6c5.2,0.9,10.8,2.8,15.4,4.6c4.2,1.5,7.2,3.6,10.3,5.9c3.4,2.6,7.2,3.9,11.2,6
		c8.3,4.4,13.9,11.6,15.1,18.6c1.1,6.3-0.7,14.6-5.9,19.8c-5.8,5.8-13.2,11-21.1,15.4c-13.8,7.8-30.2,11.2-46.9,15.1
		c-10.3,2.4-20.4,4.7-30.8,6.7c-13.9,2.6-28,4.3-42,6.7c-26.2,4.5-51.6,9.6-78.3,12.8c-31,3.7-61.8,1.7-93.1,1.9
		c-48.2,0.3-96.5,3.1-144.7,4c-21.9,0.4-43.8,1-65.7,1.3c-28.7,0.4-57,0-85.6-1.7c-17.4-1.1-34.4-2.6-51.9-2.9
		c-18.7-0.3-37.4,0.2-56.1,0.2c-22.4,0.1-44.9,0.7-67.3,0.6c-3.2,0-12.1-1.4-14.4,1"/>
</g>
<g id="Layer_4" class="st0">
	<path class="st4" d="M-23.9,406.7c2.9,0.1,3.9-1.6,6.3-2.1c2.3-0.5,3.9,0,6-0.7c1.8-0.6,3.3-1.1,5.3-1.6c1.4-0.3,3.3-0.5,4.8-0.9
		c-0.1-1.4-2.4-2.6-4.1-3.1c3.7,0.4,9.4,0.7,13.1,0.2c2.5-0.3,4.2-1,6.8-1.1c3-0.1,6,0,9,0c2.1,0,3.6,0.4,5.3,0.6
		c2.5,0.2,4.1-0.6,6.6-0.6c2.7-0.1,5.6,1,8.3,1.1c1.1,0.1,2.9,0.2,3.9,0.1c0.6,0.2,1.2,0.2,1.9,0.2c1,0.2,1.6-0.1,2-0.9
		c3.2-0.7,9.1-1,12.8-0.6c4.4,0.5,9.2,3.7,12.7,5.5c1.9,1,3.5,2,5.2,3.1c1.6,1,2.7,2.9,4.3,3.7c2.2,1.1,3.5,0.7,5.3,2.4
		c1.7,1.6,2.1,3.9,5.2,4.6c-0.3-0.4-0.7-0.9-1.1-1.3c0.8,1.5,3.7,2.3,5.1,3.5c1.2,1,2,2.4,2.9,3.6c2.6,3.2,5.5,7.3,9,10.1
		c2.6,2.1,7,4.6,8.3,7.4c0.8,1.7,0.3,3.1,1.4,4.9c1.6,2.6,3.1,2.7,6.1,4.1c4,1.8,7.3,4.1,12,5.4c2.3,0.7,4.4,1.6,6.3,2.8
		c1.7,1.1,4.1,2.8,6,3.5c2.8,1,6.1,0.2,9.5,0.7c3.6,0.5,6.3,0.9,10.2,0.9c4.3,0,7.8-0.9,12-1.1c2.6-0.1,9.2-0.6,11.6,0.2
		c-0.2,2.2,4.1,3.4,6.2,4.7c2.8,1.8,4.5,4.4,8.7,4.6c0.3,3.2,6.3,7.4,10.1,8.2c3.9,0.8,4.9,1.2,7.2,3.5c1.1,1.1,2.7,2.7,3.1,3.6
		c4.4,4.3,11.4,6.9,17.9,9.3c1.4,0.5,2.2,1.5,3.9,1.9c1.6,0.4,2.9,0,4.5,0.1c4.9,0.5,10,1.8,15.1,1.1c2.1-0.3,4-1.2,6.1-1.6
		c2.1-0.4,4.2-0.4,6.1-1c1.5-0.4,2.9-1.2,4.2-1.8c1.9-0.9,3.4-1.2,5.3-1.9c2.9-1,3.9-2.8,7.5-3.1c2.5-0.2,4.6-0.3,7.1-0.7
		c2.3-0.4,5.5-1.1,7.8-1.2c2.1-0.1,3.3,0.8,5.4,1c3.4,0.4,10.1-0.5,13.2-1.1c4.5-0.8,8.2-2.3,12.2-3.9c3.1-1.3,7.8-3.1,11.3-3.4
		c1.5-0.1,3,0.1,4.5-0.1c0.8-0.1,1.6-0.7,2.2-0.8c1.5-0.1,2.3,0.6,3.7,0.7c2,0,2.9-0.7,5.2-0.4c2.2,0.3,5.1,0.2,7.2,0.7
		c1.5,0.4,3.5,1.5,4.8,2.1c2.3,1.1,4.9,1.7,7.2,2.8c2.2,1,2.9,2.6,4.8,3.8c1.3,0.8,3.1,1.4,4.5,2.1c1.8,1,2.8,1.9,5.1,2.5
		c3.7,1.1,7.7,1.6,11.2,3c5.7,2.3,9.2,6.3,13.8,9.4c6.3,4.4,13.1,8.1,21.3,10.2c4.1,1,8,2.6,12.3,3.6c2.1,0.5,4.1,1.2,5.9,2.1
		c2.5,1.2,4.2,1.2,6.8,2c2.2,0.7,4,2.3,5.7,3.4c2.2,1.4,4.9,2.3,7.5,3.3c3.5,1.3,5.9,2.9,9,4.6c3.3,1.7,6.5,2.6,9.4,4.7
		c2.5,1.8,5.5,3,8,4.7c2.4,1.6,4.1,3.5,6.6,5.1c4.2,2.6,8.6,4.9,12.7,7.5c4.6,3,8.1,4.4,14.1,5.6c8.6,1.8,16,4.9,24.6,6.7
		c3.3,0.7,6.4,1.2,9.4,2.4c3.5,1.4,5.8,2.8,9.9,3.3c11.8,1.4,23.4,2.5,33.6,7.1c2.2,1,3.6,1.8,6.1,2.2c2.3,0.4,4.8,0,7.1,0.3
		c5,0.7,10.2,2.6,14.2,4.7c4.8,2.5,7,4.8,9.5,8.6c1.3,2.1,2.9,2.7,4.6,4.3c1.4,1.3,2.3,3,3.4,4.5c2.1,2.7,1.7,5.2,4.1,7.7
		c0.6,0.6,3.1,2.9,3.1,3.6c0,5.4-27.4,8.2-29.9,8.5c-28.1,3.6-55.2,9.6-83.5,12.4c-15.9,1.6-31.8,2.7-47.7,4.3
		c-25.4,2.5-50.6,6.5-75.8,9.8c-21.9,2.9-44.4,4.5-66.2,7.7c-12.5,1.8-24.1,4.7-36.8,5.9c-17.7,1.8-35.8,2.5-53.6,3
		c-43.9,1.2-87.9,2.4-131.8,3c-40.8,0.6-81.6,1.6-122.4,1.1c-53.8-0.7-107.4,0.9-160.9,4.5c-16.3,1.1-32.8,2.3-49.2,2.3
		c-12.1,0-24.3-0.5-36.4-0.8c-5.1-0.1-17.2,1.2-20.6-1.8c-1.1-1-0.9-5-1-5.9c-0.5-6.4,2.1-12.4,3-18.8c0.8-5,1.1-10,1.8-15.1
		c1.1-7.8,3.3-15.5,4.7-23.3c3.6-20.3,3.5-41.3,3.9-61.7c0.4-20.6,0.9-41.3,1.1-61.9c0.1-11.8-0.6-23.3-2.5-35.1
		c-1.7-11.2-3.8-22.2-3.2-33.5c0.3-6.9,1.6-13.5,1.2-20.4c-0.3-6.4-2-12.4-3.8-18.6c-1.3-4.5-2.4-8.9-4.1-13.4
		c-1.6-4.2-3.9-7.8-2.4-12c15.2,1.9,31.8,4.7,45.5,9.7c6.9,2.5,13.2,5.5,20.4,7.7c8.1,2.4,16.5,4.7,25,6.4c8,1.6,16.4,2.1,24.7,3
		c11.9,1.3,23.7,3.1,35.4,5.2c9.3,1.7,18.4,3.8,27.6,5.8c4.7,1,10.9,2.8,16,2.6"/>
</g>
</svg>
